<svg width="722" height="896" viewBox="0 0 722 896" fill="none" xmlns="http://www.w3.org/2000/svg">
<path d="M721.5 448C721.5 695.254 560.003 895.5 361 895.5C161.997 895.5 0.5 695.254 0.5 448C0.5 200.746 161.997 0.5 361 0.5C560.003 0.5 721.5 200.746 721.5 448Z" fill="white" stroke="black"/>
<rect width="473.658" height="626.356" transform="translate(597.658 761.356) rotate(-180)" fill="white"/>
<path d="M171.955 321.775C62.455 393.775 156.455 163.775 293.455 171.275C357.855 75.6748 344.955 191.441 330.455 261.275C380.455 212.875 383.955 260.775 379.455 290.775C463.855 254.775 471.955 305.775 465.455 335.775L212.955 480.275C148.555 521.075 170.788 430.941 189.955 380.775C139.955 412.375 157.122 354.608 171.955 321.775Z" fill="#3586A9" stroke="black"/>
<path d="M554.733 592.966C652.747 528.053 568.607 735.414 445.978 728.652C388.333 814.842 399.88 710.47 412.859 647.511C368.104 691.147 364.971 647.962 368.999 620.914C293.452 653.371 286.201 607.391 292.02 580.344L518.034 450.067C575.679 413.283 555.777 494.544 538.621 539.773C583.376 511.284 568.01 563.364 554.733 592.966Z" fill="#312828" stroke="black"/>
</svg>
